<mxfile host="app.diagrams.net" modified="2021-02-01T19:28:26.663Z" agent="5.0 (X11; Linux x86_64) AppleWebKit/537.36 (KHTML, like Gecko) Chrome/87.0.4280.66 Safari/537.36" etag="7bjCYfGI1Xsv2E1b_5dq" version="14.2.9" type="github">
  <diagram id="R2lEEEUBdFMjLlhIrx00" name="Page-1">
    <mxGraphModel dx="1590" dy="1845" grid="1" gridSize="10" guides="1" tooltips="1" connect="1" arrows="1" fold="1" page="1" pageScale="1" pageWidth="850" pageHeight="1100" math="0" shadow="0" extFonts="Permanent Marker^https://fonts.googleapis.com/css?family=Permanent+Marker">
      <root>
        <mxCell id="0" />
        <mxCell id="1" parent="0" />
        <mxCell id="KlQsDDyuzit7b74eauUE-1" value="Categories" style="shape=table;startSize=30;container=1;collapsible=1;childLayout=tableLayout;fixedRows=1;rowLines=0;fontStyle=1;align=center;resizeLast=1;" parent="1" vertex="1">
          <mxGeometry x="40" y="70" width="180" height="130" as="geometry" />
        </mxCell>
        <mxCell id="KlQsDDyuzit7b74eauUE-2" value="" style="shape=partialRectangle;collapsible=0;dropTarget=0;pointerEvents=0;fillColor=none;top=0;left=0;bottom=1;right=0;points=[[0,0.5],[1,0.5]];portConstraint=eastwest;" parent="KlQsDDyuzit7b74eauUE-1" vertex="1">
          <mxGeometry y="30" width="180" height="30" as="geometry" />
        </mxCell>
        <mxCell id="KlQsDDyuzit7b74eauUE-3" value="PK" style="shape=partialRectangle;connectable=0;fillColor=none;top=0;left=0;bottom=0;right=0;fontStyle=1;overflow=hidden;" parent="KlQsDDyuzit7b74eauUE-2" vertex="1">
          <mxGeometry width="30" height="30" as="geometry" />
        </mxCell>
        <mxCell id="KlQsDDyuzit7b74eauUE-4" value="Id" style="shape=partialRectangle;connectable=0;fillColor=none;top=0;left=0;bottom=0;right=0;align=left;spacingLeft=6;fontStyle=5;overflow=hidden;" parent="KlQsDDyuzit7b74eauUE-2" vertex="1">
          <mxGeometry x="30" width="150" height="30" as="geometry" />
        </mxCell>
        <mxCell id="KlQsDDyuzit7b74eauUE-5" value="" style="shape=partialRectangle;collapsible=0;dropTarget=0;pointerEvents=0;fillColor=none;top=0;left=0;bottom=0;right=0;points=[[0,0.5],[1,0.5]];portConstraint=eastwest;" parent="KlQsDDyuzit7b74eauUE-1" vertex="1">
          <mxGeometry y="60" width="180" height="30" as="geometry" />
        </mxCell>
        <mxCell id="KlQsDDyuzit7b74eauUE-6" value="" style="shape=partialRectangle;connectable=0;fillColor=none;top=0;left=0;bottom=0;right=0;editable=1;overflow=hidden;" parent="KlQsDDyuzit7b74eauUE-5" vertex="1">
          <mxGeometry width="30" height="30" as="geometry" />
        </mxCell>
        <mxCell id="KlQsDDyuzit7b74eauUE-7" value="name:string" style="shape=partialRectangle;connectable=0;fillColor=none;top=0;left=0;bottom=0;right=0;align=left;spacingLeft=6;overflow=hidden;" parent="KlQsDDyuzit7b74eauUE-5" vertex="1">
          <mxGeometry x="30" width="150" height="30" as="geometry" />
        </mxCell>
        <mxCell id="KlQsDDyuzit7b74eauUE-20" style="edgeStyle=orthogonalEdgeStyle;rounded=0;orthogonalLoop=1;jettySize=auto;html=1;entryX=0;entryY=0.5;entryDx=0;entryDy=0;" parent="KlQsDDyuzit7b74eauUE-1" source="KlQsDDyuzit7b74eauUE-8" target="KlQsDDyuzit7b74eauUE-2" edge="1">
          <mxGeometry relative="1" as="geometry" />
        </mxCell>
        <mxCell id="KlQsDDyuzit7b74eauUE-8" value="" style="shape=partialRectangle;collapsible=0;dropTarget=0;pointerEvents=0;fillColor=none;top=0;left=0;bottom=0;right=0;points=[[0,0.5],[1,0.5]];portConstraint=eastwest;" parent="KlQsDDyuzit7b74eauUE-1" vertex="1">
          <mxGeometry y="90" width="180" height="30" as="geometry" />
        </mxCell>
        <mxCell id="KlQsDDyuzit7b74eauUE-9" value="" style="shape=partialRectangle;connectable=0;fillColor=none;top=0;left=0;bottom=0;right=0;editable=1;overflow=hidden;" parent="KlQsDDyuzit7b74eauUE-8" vertex="1">
          <mxGeometry width="30" height="30" as="geometry" />
        </mxCell>
        <mxCell id="KlQsDDyuzit7b74eauUE-10" value="category_id:Bigint" style="shape=partialRectangle;connectable=0;fillColor=none;top=0;left=0;bottom=0;right=0;align=left;spacingLeft=6;overflow=hidden;" parent="KlQsDDyuzit7b74eauUE-8" vertex="1">
          <mxGeometry x="30" width="150" height="30" as="geometry" />
        </mxCell>
        <mxCell id="KlQsDDyuzit7b74eauUE-21" value="Products" style="shape=table;startSize=30;container=1;collapsible=1;childLayout=tableLayout;fixedRows=1;rowLines=0;fontStyle=1;align=center;resizeLast=1;" parent="1" vertex="1">
          <mxGeometry x="300" y="290" width="180" height="220" as="geometry" />
        </mxCell>
        <mxCell id="KlQsDDyuzit7b74eauUE-22" value="" style="shape=partialRectangle;collapsible=0;dropTarget=0;pointerEvents=0;fillColor=none;top=0;left=0;bottom=1;right=0;points=[[0,0.5],[1,0.5]];portConstraint=eastwest;" parent="KlQsDDyuzit7b74eauUE-21" vertex="1">
          <mxGeometry y="30" width="180" height="30" as="geometry" />
        </mxCell>
        <mxCell id="KlQsDDyuzit7b74eauUE-23" value="PK" style="shape=partialRectangle;connectable=0;fillColor=none;top=0;left=0;bottom=0;right=0;fontStyle=1;overflow=hidden;" parent="KlQsDDyuzit7b74eauUE-22" vertex="1">
          <mxGeometry width="30" height="30" as="geometry" />
        </mxCell>
        <mxCell id="KlQsDDyuzit7b74eauUE-24" value="id_product" style="shape=partialRectangle;connectable=0;fillColor=none;top=0;left=0;bottom=0;right=0;align=left;spacingLeft=6;fontStyle=5;overflow=hidden;" parent="KlQsDDyuzit7b74eauUE-22" vertex="1">
          <mxGeometry x="30" width="150" height="30" as="geometry" />
        </mxCell>
        <mxCell id="KlQsDDyuzit7b74eauUE-25" value="" style="shape=partialRectangle;collapsible=0;dropTarget=0;pointerEvents=0;fillColor=none;top=0;left=0;bottom=0;right=0;points=[[0,0.5],[1,0.5]];portConstraint=eastwest;" parent="KlQsDDyuzit7b74eauUE-21" vertex="1">
          <mxGeometry y="60" width="180" height="30" as="geometry" />
        </mxCell>
        <mxCell id="KlQsDDyuzit7b74eauUE-26" value="" style="shape=partialRectangle;connectable=0;fillColor=none;top=0;left=0;bottom=0;right=0;editable=1;overflow=hidden;" parent="KlQsDDyuzit7b74eauUE-25" vertex="1">
          <mxGeometry width="30" height="30" as="geometry" />
        </mxCell>
        <mxCell id="KlQsDDyuzit7b74eauUE-27" value="name:string" style="shape=partialRectangle;connectable=0;fillColor=none;top=0;left=0;bottom=0;right=0;align=left;spacingLeft=6;overflow=hidden;" parent="KlQsDDyuzit7b74eauUE-25" vertex="1">
          <mxGeometry x="30" width="150" height="30" as="geometry" />
        </mxCell>
        <mxCell id="KlQsDDyuzit7b74eauUE-28" value="" style="shape=partialRectangle;collapsible=0;dropTarget=0;pointerEvents=0;fillColor=none;top=0;left=0;bottom=0;right=0;points=[[0,0.5],[1,0.5]];portConstraint=eastwest;" parent="KlQsDDyuzit7b74eauUE-21" vertex="1">
          <mxGeometry y="90" width="180" height="30" as="geometry" />
        </mxCell>
        <mxCell id="KlQsDDyuzit7b74eauUE-29" value="" style="shape=partialRectangle;connectable=0;fillColor=none;top=0;left=0;bottom=0;right=0;editable=1;overflow=hidden;" parent="KlQsDDyuzit7b74eauUE-28" vertex="1">
          <mxGeometry width="30" height="30" as="geometry" />
        </mxCell>
        <mxCell id="KlQsDDyuzit7b74eauUE-30" value="description:text" style="shape=partialRectangle;connectable=0;fillColor=none;top=0;left=0;bottom=0;right=0;align=left;spacingLeft=6;overflow=hidden;" parent="KlQsDDyuzit7b74eauUE-28" vertex="1">
          <mxGeometry x="30" width="150" height="30" as="geometry" />
        </mxCell>
        <mxCell id="KlQsDDyuzit7b74eauUE-31" value="" style="shape=partialRectangle;collapsible=0;dropTarget=0;pointerEvents=0;fillColor=none;top=0;left=0;bottom=0;right=0;points=[[0,0.5],[1,0.5]];portConstraint=eastwest;" parent="KlQsDDyuzit7b74eauUE-21" vertex="1">
          <mxGeometry y="120" width="180" height="30" as="geometry" />
        </mxCell>
        <mxCell id="KlQsDDyuzit7b74eauUE-32" value="" style="shape=partialRectangle;connectable=0;fillColor=none;top=0;left=0;bottom=0;right=0;editable=1;overflow=hidden;" parent="KlQsDDyuzit7b74eauUE-31" vertex="1">
          <mxGeometry width="30" height="30" as="geometry" />
        </mxCell>
        <mxCell id="KlQsDDyuzit7b74eauUE-33" value="stock:integer" style="shape=partialRectangle;connectable=0;fillColor=none;top=0;left=0;bottom=0;right=0;align=left;spacingLeft=6;overflow=hidden;" parent="KlQsDDyuzit7b74eauUE-31" vertex="1">
          <mxGeometry x="30" width="150" height="30" as="geometry" />
        </mxCell>
        <mxCell id="KlQsDDyuzit7b74eauUE-60" value="" style="shape=partialRectangle;collapsible=0;dropTarget=0;pointerEvents=0;fillColor=none;top=0;left=0;bottom=0;right=0;points=[[0,0.5],[1,0.5]];portConstraint=eastwest;" parent="KlQsDDyuzit7b74eauUE-21" vertex="1">
          <mxGeometry y="150" width="180" height="30" as="geometry" />
        </mxCell>
        <mxCell id="KlQsDDyuzit7b74eauUE-61" value="" style="shape=partialRectangle;connectable=0;fillColor=none;top=0;left=0;bottom=0;right=0;editable=1;overflow=hidden;" parent="KlQsDDyuzit7b74eauUE-60" vertex="1">
          <mxGeometry width="30" height="30" as="geometry" />
        </mxCell>
        <mxCell id="KlQsDDyuzit7b74eauUE-62" value="price:float" style="shape=partialRectangle;connectable=0;fillColor=none;top=0;left=0;bottom=0;right=0;align=left;spacingLeft=6;overflow=hidden;" parent="KlQsDDyuzit7b74eauUE-60" vertex="1">
          <mxGeometry x="30" width="150" height="30" as="geometry" />
        </mxCell>
        <mxCell id="KlQsDDyuzit7b74eauUE-63" value="" style="shape=partialRectangle;collapsible=0;dropTarget=0;pointerEvents=0;fillColor=none;top=0;left=0;bottom=0;right=0;points=[[0,0.5],[1,0.5]];portConstraint=eastwest;" parent="KlQsDDyuzit7b74eauUE-21" vertex="1">
          <mxGeometry y="180" width="180" height="30" as="geometry" />
        </mxCell>
        <mxCell id="KlQsDDyuzit7b74eauUE-64" value="" style="shape=partialRectangle;connectable=0;fillColor=none;top=0;left=0;bottom=0;right=0;editable=1;overflow=hidden;" parent="KlQsDDyuzit7b74eauUE-63" vertex="1">
          <mxGeometry width="30" height="30" as="geometry" />
        </mxCell>
        <mxCell id="KlQsDDyuzit7b74eauUE-65" value="sku:string" style="shape=partialRectangle;connectable=0;fillColor=none;top=0;left=0;bottom=0;right=0;align=left;spacingLeft=6;overflow=hidden;" parent="KlQsDDyuzit7b74eauUE-63" vertex="1">
          <mxGeometry x="30" width="150" height="30" as="geometry" />
        </mxCell>
        <mxCell id="KlQsDDyuzit7b74eauUE-66" style="edgeStyle=orthogonalEdgeStyle;rounded=0;orthogonalLoop=1;jettySize=auto;html=1;entryX=0;entryY=0.5;entryDx=0;entryDy=0;exitX=0;exitY=0.5;exitDx=0;exitDy=0;" parent="1" source="KlQsDDyuzit7b74eauUE-38" target="KlQsDDyuzit7b74eauUE-2" edge="1">
          <mxGeometry relative="1" as="geometry" />
        </mxCell>
        <mxCell id="KlQsDDyuzit7b74eauUE-34" value="categories_products" style="shape=table;startSize=30;container=1;collapsible=1;childLayout=tableLayout;fixedRows=1;rowLines=0;fontStyle=1;align=center;resizeLast=1;" parent="1" vertex="1">
          <mxGeometry x="40" y="230" width="180" height="130" as="geometry" />
        </mxCell>
        <mxCell id="KlQsDDyuzit7b74eauUE-35" value="" style="shape=partialRectangle;collapsible=0;dropTarget=0;pointerEvents=0;fillColor=none;top=0;left=0;bottom=1;right=0;points=[[0,0.5],[1,0.5]];portConstraint=eastwest;" parent="KlQsDDyuzit7b74eauUE-34" vertex="1">
          <mxGeometry y="30" width="180" height="30" as="geometry" />
        </mxCell>
        <mxCell id="KlQsDDyuzit7b74eauUE-36" value="PK" style="shape=partialRectangle;connectable=0;fillColor=none;top=0;left=0;bottom=0;right=0;fontStyle=1;overflow=hidden;" parent="KlQsDDyuzit7b74eauUE-35" vertex="1">
          <mxGeometry width="30" height="30" as="geometry" />
        </mxCell>
        <mxCell id="KlQsDDyuzit7b74eauUE-37" value="id" style="shape=partialRectangle;connectable=0;fillColor=none;top=0;left=0;bottom=0;right=0;align=left;spacingLeft=6;fontStyle=5;overflow=hidden;" parent="KlQsDDyuzit7b74eauUE-35" vertex="1">
          <mxGeometry x="30" width="150" height="30" as="geometry" />
        </mxCell>
        <mxCell id="KlQsDDyuzit7b74eauUE-38" value="" style="shape=partialRectangle;collapsible=0;dropTarget=0;pointerEvents=0;fillColor=none;top=0;left=0;bottom=0;right=0;points=[[0,0.5],[1,0.5]];portConstraint=eastwest;" parent="KlQsDDyuzit7b74eauUE-34" vertex="1">
          <mxGeometry y="60" width="180" height="30" as="geometry" />
        </mxCell>
        <mxCell id="KlQsDDyuzit7b74eauUE-39" value="" style="shape=partialRectangle;connectable=0;fillColor=none;top=0;left=0;bottom=0;right=0;editable=1;overflow=hidden;" parent="KlQsDDyuzit7b74eauUE-38" vertex="1">
          <mxGeometry width="30" height="30" as="geometry" />
        </mxCell>
        <mxCell id="KlQsDDyuzit7b74eauUE-40" value="category_id:bigint" style="shape=partialRectangle;connectable=0;fillColor=none;top=0;left=0;bottom=0;right=0;align=left;spacingLeft=6;overflow=hidden;" parent="KlQsDDyuzit7b74eauUE-38" vertex="1">
          <mxGeometry x="30" width="150" height="30" as="geometry" />
        </mxCell>
        <mxCell id="KlQsDDyuzit7b74eauUE-41" value="" style="shape=partialRectangle;collapsible=0;dropTarget=0;pointerEvents=0;fillColor=none;top=0;left=0;bottom=0;right=0;points=[[0,0.5],[1,0.5]];portConstraint=eastwest;" parent="KlQsDDyuzit7b74eauUE-34" vertex="1">
          <mxGeometry y="90" width="180" height="30" as="geometry" />
        </mxCell>
        <mxCell id="KlQsDDyuzit7b74eauUE-42" value="" style="shape=partialRectangle;connectable=0;fillColor=none;top=0;left=0;bottom=0;right=0;editable=1;overflow=hidden;" parent="KlQsDDyuzit7b74eauUE-41" vertex="1">
          <mxGeometry width="30" height="30" as="geometry" />
        </mxCell>
        <mxCell id="KlQsDDyuzit7b74eauUE-43" value="product:id:bigint" style="shape=partialRectangle;connectable=0;fillColor=none;top=0;left=0;bottom=0;right=0;align=left;spacingLeft=6;overflow=hidden;" parent="KlQsDDyuzit7b74eauUE-41" vertex="1">
          <mxGeometry x="30" width="150" height="30" as="geometry" />
        </mxCell>
        <mxCell id="KlQsDDyuzit7b74eauUE-47" value="Product_variants" style="shape=table;startSize=30;container=1;collapsible=1;childLayout=tableLayout;fixedRows=1;rowLines=0;fontStyle=1;align=center;resizeLast=1;" parent="1" vertex="1">
          <mxGeometry x="300" y="110" width="180" height="130" as="geometry" />
        </mxCell>
        <mxCell id="KlQsDDyuzit7b74eauUE-48" value="" style="shape=partialRectangle;collapsible=0;dropTarget=0;pointerEvents=0;fillColor=none;top=0;left=0;bottom=1;right=0;points=[[0,0.5],[1,0.5]];portConstraint=eastwest;" parent="KlQsDDyuzit7b74eauUE-47" vertex="1">
          <mxGeometry y="30" width="180" height="30" as="geometry" />
        </mxCell>
        <mxCell id="KlQsDDyuzit7b74eauUE-49" value="PK" style="shape=partialRectangle;connectable=0;fillColor=none;top=0;left=0;bottom=0;right=0;fontStyle=1;overflow=hidden;" parent="KlQsDDyuzit7b74eauUE-48" vertex="1">
          <mxGeometry width="30" height="30" as="geometry" />
        </mxCell>
        <mxCell id="KlQsDDyuzit7b74eauUE-50" value="id" style="shape=partialRectangle;connectable=0;fillColor=none;top=0;left=0;bottom=0;right=0;align=left;spacingLeft=6;fontStyle=5;overflow=hidden;" parent="KlQsDDyuzit7b74eauUE-48" vertex="1">
          <mxGeometry x="30" width="150" height="30" as="geometry" />
        </mxCell>
        <mxCell id="KlQsDDyuzit7b74eauUE-51" value="" style="shape=partialRectangle;collapsible=0;dropTarget=0;pointerEvents=0;fillColor=none;top=0;left=0;bottom=0;right=0;points=[[0,0.5],[1,0.5]];portConstraint=eastwest;" parent="KlQsDDyuzit7b74eauUE-47" vertex="1">
          <mxGeometry y="60" width="180" height="30" as="geometry" />
        </mxCell>
        <mxCell id="KlQsDDyuzit7b74eauUE-52" value="" style="shape=partialRectangle;connectable=0;fillColor=none;top=0;left=0;bottom=0;right=0;editable=1;overflow=hidden;" parent="KlQsDDyuzit7b74eauUE-51" vertex="1">
          <mxGeometry width="30" height="30" as="geometry" />
        </mxCell>
        <mxCell id="KlQsDDyuzit7b74eauUE-53" value="product_id:bigint" style="shape=partialRectangle;connectable=0;fillColor=none;top=0;left=0;bottom=0;right=0;align=left;spacingLeft=6;overflow=hidden;" parent="KlQsDDyuzit7b74eauUE-51" vertex="1">
          <mxGeometry x="30" width="150" height="30" as="geometry" />
        </mxCell>
        <mxCell id="KlQsDDyuzit7b74eauUE-54" value="" style="shape=partialRectangle;collapsible=0;dropTarget=0;pointerEvents=0;fillColor=none;top=0;left=0;bottom=0;right=0;points=[[0,0.5],[1,0.5]];portConstraint=eastwest;" parent="KlQsDDyuzit7b74eauUE-47" vertex="1">
          <mxGeometry y="90" width="180" height="30" as="geometry" />
        </mxCell>
        <mxCell id="KlQsDDyuzit7b74eauUE-55" value="" style="shape=partialRectangle;connectable=0;fillColor=none;top=0;left=0;bottom=0;right=0;editable=1;overflow=hidden;" parent="KlQsDDyuzit7b74eauUE-54" vertex="1">
          <mxGeometry width="30" height="30" as="geometry" />
        </mxCell>
        <mxCell id="KlQsDDyuzit7b74eauUE-56" value="variant_id:bigint" style="shape=partialRectangle;connectable=0;fillColor=none;top=0;left=0;bottom=0;right=0;align=left;spacingLeft=6;overflow=hidden;" parent="KlQsDDyuzit7b74eauUE-54" vertex="1">
          <mxGeometry x="30" width="150" height="30" as="geometry" />
        </mxCell>
        <mxCell id="KlQsDDyuzit7b74eauUE-67" style="edgeStyle=orthogonalEdgeStyle;rounded=0;orthogonalLoop=1;jettySize=auto;html=1;exitX=1;exitY=0.5;exitDx=0;exitDy=0;entryX=0;entryY=0.5;entryDx=0;entryDy=0;" parent="1" source="KlQsDDyuzit7b74eauUE-41" target="KlQsDDyuzit7b74eauUE-22" edge="1">
          <mxGeometry relative="1" as="geometry" />
        </mxCell>
        <mxCell id="xQFp0Q-bo08T8DU-dh-C-1" style="edgeStyle=orthogonalEdgeStyle;rounded=0;orthogonalLoop=1;jettySize=auto;html=1;exitX=0;exitY=0.5;exitDx=0;exitDy=0;entryX=0;entryY=0.5;entryDx=0;entryDy=0;" edge="1" parent="1" source="KlQsDDyuzit7b74eauUE-51" target="KlQsDDyuzit7b74eauUE-22">
          <mxGeometry relative="1" as="geometry" />
        </mxCell>
        <mxCell id="xQFp0Q-bo08T8DU-dh-C-2" value="Variants" style="shape=table;startSize=30;container=1;collapsible=1;childLayout=tableLayout;fixedRows=1;rowLines=0;fontStyle=1;align=center;resizeLast=1;" vertex="1" parent="1">
          <mxGeometry x="300" y="-20" width="180" height="100" as="geometry" />
        </mxCell>
        <mxCell id="xQFp0Q-bo08T8DU-dh-C-3" value="" style="shape=partialRectangle;collapsible=0;dropTarget=0;pointerEvents=0;fillColor=none;top=0;left=0;bottom=1;right=0;points=[[0,0.5],[1,0.5]];portConstraint=eastwest;" vertex="1" parent="xQFp0Q-bo08T8DU-dh-C-2">
          <mxGeometry y="30" width="180" height="30" as="geometry" />
        </mxCell>
        <mxCell id="xQFp0Q-bo08T8DU-dh-C-4" value="PK" style="shape=partialRectangle;connectable=0;fillColor=none;top=0;left=0;bottom=0;right=0;fontStyle=1;overflow=hidden;" vertex="1" parent="xQFp0Q-bo08T8DU-dh-C-3">
          <mxGeometry width="30" height="30" as="geometry" />
        </mxCell>
        <mxCell id="xQFp0Q-bo08T8DU-dh-C-5" value="id" style="shape=partialRectangle;connectable=0;fillColor=none;top=0;left=0;bottom=0;right=0;align=left;spacingLeft=6;fontStyle=5;overflow=hidden;" vertex="1" parent="xQFp0Q-bo08T8DU-dh-C-3">
          <mxGeometry x="30" width="150" height="30" as="geometry" />
        </mxCell>
        <mxCell id="xQFp0Q-bo08T8DU-dh-C-6" value="" style="shape=partialRectangle;collapsible=0;dropTarget=0;pointerEvents=0;fillColor=none;top=0;left=0;bottom=0;right=0;points=[[0,0.5],[1,0.5]];portConstraint=eastwest;" vertex="1" parent="xQFp0Q-bo08T8DU-dh-C-2">
          <mxGeometry y="60" width="180" height="30" as="geometry" />
        </mxCell>
        <mxCell id="xQFp0Q-bo08T8DU-dh-C-7" value="" style="shape=partialRectangle;connectable=0;fillColor=none;top=0;left=0;bottom=0;right=0;editable=1;overflow=hidden;" vertex="1" parent="xQFp0Q-bo08T8DU-dh-C-6">
          <mxGeometry width="30" height="30" as="geometry" />
        </mxCell>
        <mxCell id="xQFp0Q-bo08T8DU-dh-C-8" value="name:string" style="shape=partialRectangle;connectable=0;fillColor=none;top=0;left=0;bottom=0;right=0;align=left;spacingLeft=6;overflow=hidden;" vertex="1" parent="xQFp0Q-bo08T8DU-dh-C-6">
          <mxGeometry x="30" width="150" height="30" as="geometry" />
        </mxCell>
        <mxCell id="xQFp0Q-bo08T8DU-dh-C-12" style="edgeStyle=orthogonalEdgeStyle;rounded=0;orthogonalLoop=1;jettySize=auto;html=1;entryX=1;entryY=0.5;entryDx=0;entryDy=0;exitX=1;exitY=0.5;exitDx=0;exitDy=0;" edge="1" parent="1" source="KlQsDDyuzit7b74eauUE-54" target="xQFp0Q-bo08T8DU-dh-C-3">
          <mxGeometry relative="1" as="geometry" />
        </mxCell>
        <mxCell id="xQFp0Q-bo08T8DU-dh-C-13" value="Order_items" style="shape=table;startSize=30;container=1;collapsible=1;childLayout=tableLayout;fixedRows=1;rowLines=0;fontStyle=1;align=center;resizeLast=1;" vertex="1" parent="1">
          <mxGeometry x="560" y="260" width="180" height="190" as="geometry" />
        </mxCell>
        <mxCell id="xQFp0Q-bo08T8DU-dh-C-14" value="" style="shape=partialRectangle;collapsible=0;dropTarget=0;pointerEvents=0;fillColor=none;top=0;left=0;bottom=1;right=0;points=[[0,0.5],[1,0.5]];portConstraint=eastwest;" vertex="1" parent="xQFp0Q-bo08T8DU-dh-C-13">
          <mxGeometry y="30" width="180" height="30" as="geometry" />
        </mxCell>
        <mxCell id="xQFp0Q-bo08T8DU-dh-C-15" value="PK" style="shape=partialRectangle;connectable=0;fillColor=none;top=0;left=0;bottom=0;right=0;fontStyle=1;overflow=hidden;" vertex="1" parent="xQFp0Q-bo08T8DU-dh-C-14">
          <mxGeometry width="30" height="30" as="geometry" />
        </mxCell>
        <mxCell id="xQFp0Q-bo08T8DU-dh-C-16" value="id" style="shape=partialRectangle;connectable=0;fillColor=none;top=0;left=0;bottom=0;right=0;align=left;spacingLeft=6;fontStyle=5;overflow=hidden;" vertex="1" parent="xQFp0Q-bo08T8DU-dh-C-14">
          <mxGeometry x="30" width="150" height="30" as="geometry" />
        </mxCell>
        <mxCell id="xQFp0Q-bo08T8DU-dh-C-17" value="" style="shape=partialRectangle;collapsible=0;dropTarget=0;pointerEvents=0;fillColor=none;top=0;left=0;bottom=0;right=0;points=[[0,0.5],[1,0.5]];portConstraint=eastwest;" vertex="1" parent="xQFp0Q-bo08T8DU-dh-C-13">
          <mxGeometry y="60" width="180" height="30" as="geometry" />
        </mxCell>
        <mxCell id="xQFp0Q-bo08T8DU-dh-C-18" value="" style="shape=partialRectangle;connectable=0;fillColor=none;top=0;left=0;bottom=0;right=0;editable=1;overflow=hidden;" vertex="1" parent="xQFp0Q-bo08T8DU-dh-C-17">
          <mxGeometry width="30" height="30" as="geometry" />
        </mxCell>
        <mxCell id="xQFp0Q-bo08T8DU-dh-C-19" value="product_id:bigint" style="shape=partialRectangle;connectable=0;fillColor=none;top=0;left=0;bottom=0;right=0;align=left;spacingLeft=6;overflow=hidden;" vertex="1" parent="xQFp0Q-bo08T8DU-dh-C-17">
          <mxGeometry x="30" width="150" height="30" as="geometry" />
        </mxCell>
        <mxCell id="xQFp0Q-bo08T8DU-dh-C-20" value="" style="shape=partialRectangle;collapsible=0;dropTarget=0;pointerEvents=0;fillColor=none;top=0;left=0;bottom=0;right=0;points=[[0,0.5],[1,0.5]];portConstraint=eastwest;" vertex="1" parent="xQFp0Q-bo08T8DU-dh-C-13">
          <mxGeometry y="90" width="180" height="30" as="geometry" />
        </mxCell>
        <mxCell id="xQFp0Q-bo08T8DU-dh-C-21" value="" style="shape=partialRectangle;connectable=0;fillColor=none;top=0;left=0;bottom=0;right=0;editable=1;overflow=hidden;" vertex="1" parent="xQFp0Q-bo08T8DU-dh-C-20">
          <mxGeometry width="30" height="30" as="geometry" />
        </mxCell>
        <mxCell id="xQFp0Q-bo08T8DU-dh-C-22" value="order_id:bigint" style="shape=partialRectangle;connectable=0;fillColor=none;top=0;left=0;bottom=0;right=0;align=left;spacingLeft=6;overflow=hidden;" vertex="1" parent="xQFp0Q-bo08T8DU-dh-C-20">
          <mxGeometry x="30" width="150" height="30" as="geometry" />
        </mxCell>
        <mxCell id="xQFp0Q-bo08T8DU-dh-C-23" value="" style="shape=partialRectangle;collapsible=0;dropTarget=0;pointerEvents=0;fillColor=none;top=0;left=0;bottom=0;right=0;points=[[0,0.5],[1,0.5]];portConstraint=eastwest;" vertex="1" parent="xQFp0Q-bo08T8DU-dh-C-13">
          <mxGeometry y="120" width="180" height="30" as="geometry" />
        </mxCell>
        <mxCell id="xQFp0Q-bo08T8DU-dh-C-24" value="" style="shape=partialRectangle;connectable=0;fillColor=none;top=0;left=0;bottom=0;right=0;editable=1;overflow=hidden;" vertex="1" parent="xQFp0Q-bo08T8DU-dh-C-23">
          <mxGeometry width="30" height="30" as="geometry" />
        </mxCell>
        <mxCell id="xQFp0Q-bo08T8DU-dh-C-25" value="quantity:integer" style="shape=partialRectangle;connectable=0;fillColor=none;top=0;left=0;bottom=0;right=0;align=left;spacingLeft=6;overflow=hidden;" vertex="1" parent="xQFp0Q-bo08T8DU-dh-C-23">
          <mxGeometry x="30" width="150" height="30" as="geometry" />
        </mxCell>
        <mxCell id="xQFp0Q-bo08T8DU-dh-C-26" value="" style="shape=partialRectangle;collapsible=0;dropTarget=0;pointerEvents=0;fillColor=none;top=0;left=0;bottom=0;right=0;points=[[0,0.5],[1,0.5]];portConstraint=eastwest;" vertex="1" parent="xQFp0Q-bo08T8DU-dh-C-13">
          <mxGeometry y="150" width="180" height="30" as="geometry" />
        </mxCell>
        <mxCell id="xQFp0Q-bo08T8DU-dh-C-27" value="" style="shape=partialRectangle;connectable=0;fillColor=none;top=0;left=0;bottom=0;right=0;editable=1;overflow=hidden;" vertex="1" parent="xQFp0Q-bo08T8DU-dh-C-26">
          <mxGeometry width="30" height="30" as="geometry" />
        </mxCell>
        <mxCell id="xQFp0Q-bo08T8DU-dh-C-28" value="price:float" style="shape=partialRectangle;connectable=0;fillColor=none;top=0;left=0;bottom=0;right=0;align=left;spacingLeft=6;overflow=hidden;" vertex="1" parent="xQFp0Q-bo08T8DU-dh-C-26">
          <mxGeometry x="30" width="150" height="30" as="geometry" />
        </mxCell>
        <mxCell id="xQFp0Q-bo08T8DU-dh-C-32" style="edgeStyle=orthogonalEdgeStyle;rounded=0;orthogonalLoop=1;jettySize=auto;html=1;exitX=0;exitY=0.5;exitDx=0;exitDy=0;" edge="1" parent="1" source="xQFp0Q-bo08T8DU-dh-C-17" target="KlQsDDyuzit7b74eauUE-22">
          <mxGeometry relative="1" as="geometry" />
        </mxCell>
        <mxCell id="xQFp0Q-bo08T8DU-dh-C-33" value="Orders" style="shape=table;startSize=30;container=1;collapsible=1;childLayout=tableLayout;fixedRows=1;rowLines=0;fontStyle=1;align=center;resizeLast=1;" vertex="1" parent="1">
          <mxGeometry x="560" y="510" width="180" height="190" as="geometry" />
        </mxCell>
        <mxCell id="xQFp0Q-bo08T8DU-dh-C-34" value="" style="shape=partialRectangle;collapsible=0;dropTarget=0;pointerEvents=0;fillColor=none;top=0;left=0;bottom=1;right=0;points=[[0,0.5],[1,0.5]];portConstraint=eastwest;" vertex="1" parent="xQFp0Q-bo08T8DU-dh-C-33">
          <mxGeometry y="30" width="180" height="30" as="geometry" />
        </mxCell>
        <mxCell id="xQFp0Q-bo08T8DU-dh-C-35" value="PK" style="shape=partialRectangle;connectable=0;fillColor=none;top=0;left=0;bottom=0;right=0;fontStyle=1;overflow=hidden;" vertex="1" parent="xQFp0Q-bo08T8DU-dh-C-34">
          <mxGeometry width="30" height="30" as="geometry" />
        </mxCell>
        <mxCell id="xQFp0Q-bo08T8DU-dh-C-36" value="order_id" style="shape=partialRectangle;connectable=0;fillColor=none;top=0;left=0;bottom=0;right=0;align=left;spacingLeft=6;fontStyle=5;overflow=hidden;" vertex="1" parent="xQFp0Q-bo08T8DU-dh-C-34">
          <mxGeometry x="30" width="150" height="30" as="geometry" />
        </mxCell>
        <mxCell id="xQFp0Q-bo08T8DU-dh-C-37" value="" style="shape=partialRectangle;collapsible=0;dropTarget=0;pointerEvents=0;fillColor=none;top=0;left=0;bottom=0;right=0;points=[[0,0.5],[1,0.5]];portConstraint=eastwest;" vertex="1" parent="xQFp0Q-bo08T8DU-dh-C-33">
          <mxGeometry y="60" width="180" height="30" as="geometry" />
        </mxCell>
        <mxCell id="xQFp0Q-bo08T8DU-dh-C-38" value="" style="shape=partialRectangle;connectable=0;fillColor=none;top=0;left=0;bottom=0;right=0;editable=1;overflow=hidden;" vertex="1" parent="xQFp0Q-bo08T8DU-dh-C-37">
          <mxGeometry width="30" height="30" as="geometry" />
        </mxCell>
        <mxCell id="xQFp0Q-bo08T8DU-dh-C-39" value="user_id:bigint" style="shape=partialRectangle;connectable=0;fillColor=none;top=0;left=0;bottom=0;right=0;align=left;spacingLeft=6;overflow=hidden;" vertex="1" parent="xQFp0Q-bo08T8DU-dh-C-37">
          <mxGeometry x="30" width="150" height="30" as="geometry" />
        </mxCell>
        <mxCell id="xQFp0Q-bo08T8DU-dh-C-40" value="" style="shape=partialRectangle;collapsible=0;dropTarget=0;pointerEvents=0;fillColor=none;top=0;left=0;bottom=0;right=0;points=[[0,0.5],[1,0.5]];portConstraint=eastwest;" vertex="1" parent="xQFp0Q-bo08T8DU-dh-C-33">
          <mxGeometry y="90" width="180" height="30" as="geometry" />
        </mxCell>
        <mxCell id="xQFp0Q-bo08T8DU-dh-C-41" value="" style="shape=partialRectangle;connectable=0;fillColor=none;top=0;left=0;bottom=0;right=0;editable=1;overflow=hidden;" vertex="1" parent="xQFp0Q-bo08T8DU-dh-C-40">
          <mxGeometry width="30" height="30" as="geometry" />
        </mxCell>
        <mxCell id="xQFp0Q-bo08T8DU-dh-C-42" value="number:string" style="shape=partialRectangle;connectable=0;fillColor=none;top=0;left=0;bottom=0;right=0;align=left;spacingLeft=6;overflow=hidden;" vertex="1" parent="xQFp0Q-bo08T8DU-dh-C-40">
          <mxGeometry x="30" width="150" height="30" as="geometry" />
        </mxCell>
        <mxCell id="xQFp0Q-bo08T8DU-dh-C-43" value="" style="shape=partialRectangle;collapsible=0;dropTarget=0;pointerEvents=0;fillColor=none;top=0;left=0;bottom=0;right=0;points=[[0,0.5],[1,0.5]];portConstraint=eastwest;" vertex="1" parent="xQFp0Q-bo08T8DU-dh-C-33">
          <mxGeometry y="120" width="180" height="30" as="geometry" />
        </mxCell>
        <mxCell id="xQFp0Q-bo08T8DU-dh-C-44" value="" style="shape=partialRectangle;connectable=0;fillColor=none;top=0;left=0;bottom=0;right=0;editable=1;overflow=hidden;" vertex="1" parent="xQFp0Q-bo08T8DU-dh-C-43">
          <mxGeometry width="30" height="30" as="geometry" />
        </mxCell>
        <mxCell id="xQFp0Q-bo08T8DU-dh-C-45" value="total:float" style="shape=partialRectangle;connectable=0;fillColor=none;top=0;left=0;bottom=0;right=0;align=left;spacingLeft=6;overflow=hidden;" vertex="1" parent="xQFp0Q-bo08T8DU-dh-C-43">
          <mxGeometry x="30" width="150" height="30" as="geometry" />
        </mxCell>
        <mxCell id="xQFp0Q-bo08T8DU-dh-C-46" value="" style="shape=partialRectangle;collapsible=0;dropTarget=0;pointerEvents=0;fillColor=none;top=0;left=0;bottom=0;right=0;points=[[0,0.5],[1,0.5]];portConstraint=eastwest;" vertex="1" parent="xQFp0Q-bo08T8DU-dh-C-33">
          <mxGeometry y="150" width="180" height="30" as="geometry" />
        </mxCell>
        <mxCell id="xQFp0Q-bo08T8DU-dh-C-47" value="" style="shape=partialRectangle;connectable=0;fillColor=none;top=0;left=0;bottom=0;right=0;editable=1;overflow=hidden;" vertex="1" parent="xQFp0Q-bo08T8DU-dh-C-46">
          <mxGeometry width="30" height="30" as="geometry" />
        </mxCell>
        <mxCell id="xQFp0Q-bo08T8DU-dh-C-48" value="state:string" style="shape=partialRectangle;connectable=0;fillColor=none;top=0;left=0;bottom=0;right=0;align=left;spacingLeft=6;overflow=hidden;" vertex="1" parent="xQFp0Q-bo08T8DU-dh-C-46">
          <mxGeometry x="30" width="150" height="30" as="geometry" />
        </mxCell>
        <mxCell id="xQFp0Q-bo08T8DU-dh-C-50" value="Users_orders_coupons" style="shape=table;startSize=30;container=1;collapsible=1;childLayout=tableLayout;fixedRows=1;rowLines=0;fontStyle=1;align=center;resizeLast=1;" vertex="1" parent="1">
          <mxGeometry x="300" y="560" width="220" height="160" as="geometry" />
        </mxCell>
        <mxCell id="xQFp0Q-bo08T8DU-dh-C-51" value="" style="shape=partialRectangle;collapsible=0;dropTarget=0;pointerEvents=0;fillColor=none;top=0;left=0;bottom=1;right=0;points=[[0,0.5],[1,0.5]];portConstraint=eastwest;" vertex="1" parent="xQFp0Q-bo08T8DU-dh-C-50">
          <mxGeometry y="30" width="220" height="30" as="geometry" />
        </mxCell>
        <mxCell id="xQFp0Q-bo08T8DU-dh-C-52" value="PK" style="shape=partialRectangle;connectable=0;fillColor=none;top=0;left=0;bottom=0;right=0;fontStyle=1;overflow=hidden;" vertex="1" parent="xQFp0Q-bo08T8DU-dh-C-51">
          <mxGeometry width="30" height="30" as="geometry" />
        </mxCell>
        <mxCell id="xQFp0Q-bo08T8DU-dh-C-53" value="id" style="shape=partialRectangle;connectable=0;fillColor=none;top=0;left=0;bottom=0;right=0;align=left;spacingLeft=6;fontStyle=5;overflow=hidden;" vertex="1" parent="xQFp0Q-bo08T8DU-dh-C-51">
          <mxGeometry x="30" width="190" height="30" as="geometry" />
        </mxCell>
        <mxCell id="xQFp0Q-bo08T8DU-dh-C-54" value="" style="shape=partialRectangle;collapsible=0;dropTarget=0;pointerEvents=0;fillColor=none;top=0;left=0;bottom=0;right=0;points=[[0,0.5],[1,0.5]];portConstraint=eastwest;" vertex="1" parent="xQFp0Q-bo08T8DU-dh-C-50">
          <mxGeometry y="60" width="220" height="30" as="geometry" />
        </mxCell>
        <mxCell id="xQFp0Q-bo08T8DU-dh-C-55" value="" style="shape=partialRectangle;connectable=0;fillColor=none;top=0;left=0;bottom=0;right=0;editable=1;overflow=hidden;" vertex="1" parent="xQFp0Q-bo08T8DU-dh-C-54">
          <mxGeometry width="30" height="30" as="geometry" />
        </mxCell>
        <mxCell id="xQFp0Q-bo08T8DU-dh-C-56" value="user_id:bigint" style="shape=partialRectangle;connectable=0;fillColor=none;top=0;left=0;bottom=0;right=0;align=left;spacingLeft=6;overflow=hidden;" vertex="1" parent="xQFp0Q-bo08T8DU-dh-C-54">
          <mxGeometry x="30" width="190" height="30" as="geometry" />
        </mxCell>
        <mxCell id="xQFp0Q-bo08T8DU-dh-C-57" value="" style="shape=partialRectangle;collapsible=0;dropTarget=0;pointerEvents=0;fillColor=none;top=0;left=0;bottom=0;right=0;points=[[0,0.5],[1,0.5]];portConstraint=eastwest;" vertex="1" parent="xQFp0Q-bo08T8DU-dh-C-50">
          <mxGeometry y="90" width="220" height="30" as="geometry" />
        </mxCell>
        <mxCell id="xQFp0Q-bo08T8DU-dh-C-58" value="" style="shape=partialRectangle;connectable=0;fillColor=none;top=0;left=0;bottom=0;right=0;editable=1;overflow=hidden;" vertex="1" parent="xQFp0Q-bo08T8DU-dh-C-57">
          <mxGeometry width="30" height="30" as="geometry" />
        </mxCell>
        <mxCell id="xQFp0Q-bo08T8DU-dh-C-59" value="order_id:bigint" style="shape=partialRectangle;connectable=0;fillColor=none;top=0;left=0;bottom=0;right=0;align=left;spacingLeft=6;overflow=hidden;" vertex="1" parent="xQFp0Q-bo08T8DU-dh-C-57">
          <mxGeometry x="30" width="190" height="30" as="geometry" />
        </mxCell>
        <mxCell id="xQFp0Q-bo08T8DU-dh-C-131" style="edgeStyle=orthogonalEdgeStyle;rounded=0;orthogonalLoop=1;jettySize=auto;html=1;" edge="1" parent="1" source="xQFp0Q-bo08T8DU-dh-C-60" target="xQFp0Q-bo08T8DU-dh-C-106">
          <mxGeometry relative="1" as="geometry" />
        </mxCell>
        <mxCell id="xQFp0Q-bo08T8DU-dh-C-60" value="" style="shape=partialRectangle;collapsible=0;dropTarget=0;pointerEvents=0;fillColor=none;top=0;left=0;bottom=0;right=0;points=[[0,0.5],[1,0.5]];portConstraint=eastwest;" vertex="1" parent="1">
          <mxGeometry x="300" y="680" width="180" height="30" as="geometry" />
        </mxCell>
        <mxCell id="xQFp0Q-bo08T8DU-dh-C-61" value="" style="shape=partialRectangle;connectable=0;fillColor=none;top=0;left=0;bottom=0;right=0;editable=1;overflow=hidden;" vertex="1" parent="xQFp0Q-bo08T8DU-dh-C-60">
          <mxGeometry width="30" height="30" as="geometry" />
        </mxCell>
        <mxCell id="xQFp0Q-bo08T8DU-dh-C-62" value="coupon_id:bigint, optional: true" style="shape=partialRectangle;connectable=0;fillColor=none;top=0;left=0;bottom=0;right=0;align=left;spacingLeft=6;overflow=hidden;" vertex="1" parent="xQFp0Q-bo08T8DU-dh-C-60">
          <mxGeometry x="30" width="150" height="30" as="geometry" />
        </mxCell>
        <mxCell id="xQFp0Q-bo08T8DU-dh-C-63" style="edgeStyle=orthogonalEdgeStyle;rounded=0;orthogonalLoop=1;jettySize=auto;html=1;entryX=0;entryY=0.5;entryDx=0;entryDy=0;" edge="1" parent="1" source="xQFp0Q-bo08T8DU-dh-C-57" target="xQFp0Q-bo08T8DU-dh-C-34">
          <mxGeometry relative="1" as="geometry" />
        </mxCell>
        <mxCell id="xQFp0Q-bo08T8DU-dh-C-65" style="edgeStyle=orthogonalEdgeStyle;rounded=0;orthogonalLoop=1;jettySize=auto;html=1;exitX=1;exitY=0.5;exitDx=0;exitDy=0;entryX=1;entryY=0.5;entryDx=0;entryDy=0;" edge="1" parent="1" source="xQFp0Q-bo08T8DU-dh-C-20" target="xQFp0Q-bo08T8DU-dh-C-34">
          <mxGeometry relative="1" as="geometry" />
        </mxCell>
        <mxCell id="xQFp0Q-bo08T8DU-dh-C-105" value="Coupons" style="shape=table;startSize=30;container=1;collapsible=1;childLayout=tableLayout;fixedRows=1;rowLines=0;fontStyle=1;align=center;resizeLast=1;" vertex="1" parent="1">
          <mxGeometry x="40" y="540" width="210" height="190" as="geometry" />
        </mxCell>
        <mxCell id="xQFp0Q-bo08T8DU-dh-C-106" value="" style="shape=partialRectangle;collapsible=0;dropTarget=0;pointerEvents=0;fillColor=none;top=0;left=0;bottom=1;right=0;points=[[0,0.5],[1,0.5]];portConstraint=eastwest;" vertex="1" parent="xQFp0Q-bo08T8DU-dh-C-105">
          <mxGeometry y="30" width="210" height="30" as="geometry" />
        </mxCell>
        <mxCell id="xQFp0Q-bo08T8DU-dh-C-107" value="PK" style="shape=partialRectangle;connectable=0;fillColor=none;top=0;left=0;bottom=0;right=0;fontStyle=1;overflow=hidden;" vertex="1" parent="xQFp0Q-bo08T8DU-dh-C-106">
          <mxGeometry width="30" height="30" as="geometry" />
        </mxCell>
        <mxCell id="xQFp0Q-bo08T8DU-dh-C-108" value="coupon_id" style="shape=partialRectangle;connectable=0;fillColor=none;top=0;left=0;bottom=0;right=0;align=left;spacingLeft=6;fontStyle=5;overflow=hidden;" vertex="1" parent="xQFp0Q-bo08T8DU-dh-C-106">
          <mxGeometry x="30" width="180" height="30" as="geometry" />
        </mxCell>
        <mxCell id="xQFp0Q-bo08T8DU-dh-C-109" value="" style="shape=partialRectangle;collapsible=0;dropTarget=0;pointerEvents=0;fillColor=none;top=0;left=0;bottom=0;right=0;points=[[0,0.5],[1,0.5]];portConstraint=eastwest;" vertex="1" parent="xQFp0Q-bo08T8DU-dh-C-105">
          <mxGeometry y="60" width="210" height="30" as="geometry" />
        </mxCell>
        <mxCell id="xQFp0Q-bo08T8DU-dh-C-110" value="" style="shape=partialRectangle;connectable=0;fillColor=none;top=0;left=0;bottom=0;right=0;editable=1;overflow=hidden;" vertex="1" parent="xQFp0Q-bo08T8DU-dh-C-109">
          <mxGeometry width="30" height="30" as="geometry" />
        </mxCell>
        <mxCell id="xQFp0Q-bo08T8DU-dh-C-111" value="user_id:bigint, optional: true" style="shape=partialRectangle;connectable=0;fillColor=none;top=0;left=0;bottom=0;right=0;align=left;spacingLeft=6;overflow=hidden;" vertex="1" parent="xQFp0Q-bo08T8DU-dh-C-109">
          <mxGeometry x="30" width="180" height="30" as="geometry" />
        </mxCell>
        <mxCell id="xQFp0Q-bo08T8DU-dh-C-112" value="" style="shape=partialRectangle;collapsible=0;dropTarget=0;pointerEvents=0;fillColor=none;top=0;left=0;bottom=0;right=0;points=[[0,0.5],[1,0.5]];portConstraint=eastwest;" vertex="1" parent="xQFp0Q-bo08T8DU-dh-C-105">
          <mxGeometry y="90" width="210" height="30" as="geometry" />
        </mxCell>
        <mxCell id="xQFp0Q-bo08T8DU-dh-C-113" value="" style="shape=partialRectangle;connectable=0;fillColor=none;top=0;left=0;bottom=0;right=0;editable=1;overflow=hidden;" vertex="1" parent="xQFp0Q-bo08T8DU-dh-C-112">
          <mxGeometry width="30" height="30" as="geometry" />
        </mxCell>
        <mxCell id="xQFp0Q-bo08T8DU-dh-C-114" value="code:string" style="shape=partialRectangle;connectable=0;fillColor=none;top=0;left=0;bottom=0;right=0;align=left;spacingLeft=6;overflow=hidden;" vertex="1" parent="xQFp0Q-bo08T8DU-dh-C-112">
          <mxGeometry x="30" width="180" height="30" as="geometry" />
        </mxCell>
        <mxCell id="xQFp0Q-bo08T8DU-dh-C-128" value="" style="shape=partialRectangle;collapsible=0;dropTarget=0;pointerEvents=0;fillColor=none;top=0;left=0;bottom=0;right=0;points=[[0,0.5],[1,0.5]];portConstraint=eastwest;" vertex="1" parent="xQFp0Q-bo08T8DU-dh-C-105">
          <mxGeometry y="120" width="210" height="30" as="geometry" />
        </mxCell>
        <mxCell id="xQFp0Q-bo08T8DU-dh-C-129" value="" style="shape=partialRectangle;connectable=0;fillColor=none;top=0;left=0;bottom=0;right=0;editable=1;overflow=hidden;" vertex="1" parent="xQFp0Q-bo08T8DU-dh-C-128">
          <mxGeometry width="30" height="30" as="geometry" />
        </mxCell>
        <mxCell id="xQFp0Q-bo08T8DU-dh-C-130" value="amount:integer" style="shape=partialRectangle;connectable=0;fillColor=none;top=0;left=0;bottom=0;right=0;align=left;spacingLeft=6;overflow=hidden;" vertex="1" parent="xQFp0Q-bo08T8DU-dh-C-128">
          <mxGeometry x="30" width="180" height="30" as="geometry" />
        </mxCell>
        <mxCell id="xQFp0Q-bo08T8DU-dh-C-115" value="" style="shape=partialRectangle;collapsible=0;dropTarget=0;pointerEvents=0;fillColor=none;top=0;left=0;bottom=0;right=0;points=[[0,0.5],[1,0.5]];portConstraint=eastwest;" vertex="1" parent="xQFp0Q-bo08T8DU-dh-C-105">
          <mxGeometry y="150" width="210" height="30" as="geometry" />
        </mxCell>
        <mxCell id="xQFp0Q-bo08T8DU-dh-C-116" value="" style="shape=partialRectangle;connectable=0;fillColor=none;top=0;left=0;bottom=0;right=0;editable=1;overflow=hidden;" vertex="1" parent="xQFp0Q-bo08T8DU-dh-C-115">
          <mxGeometry width="30" height="30" as="geometry" />
        </mxCell>
        <mxCell id="xQFp0Q-bo08T8DU-dh-C-117" value="percent_type:boolean" style="shape=partialRectangle;connectable=0;fillColor=none;top=0;left=0;bottom=0;right=0;align=left;spacingLeft=6;overflow=hidden;" vertex="1" parent="xQFp0Q-bo08T8DU-dh-C-115">
          <mxGeometry x="30" width="180" height="30" as="geometry" />
        </mxCell>
        <mxCell id="xQFp0Q-bo08T8DU-dh-C-132" value="Users" style="shape=table;startSize=30;container=1;collapsible=1;childLayout=tableLayout;fixedRows=1;rowLines=0;fontStyle=1;align=center;resizeLast=1;" vertex="1" parent="1">
          <mxGeometry x="40" y="420" width="220" height="90" as="geometry" />
        </mxCell>
        <mxCell id="xQFp0Q-bo08T8DU-dh-C-133" value="" style="shape=partialRectangle;collapsible=0;dropTarget=0;pointerEvents=0;fillColor=none;top=0;left=0;bottom=1;right=0;points=[[0,0.5],[1,0.5]];portConstraint=eastwest;" vertex="1" parent="xQFp0Q-bo08T8DU-dh-C-132">
          <mxGeometry y="30" width="220" height="30" as="geometry" />
        </mxCell>
        <mxCell id="xQFp0Q-bo08T8DU-dh-C-134" value="PK" style="shape=partialRectangle;connectable=0;fillColor=none;top=0;left=0;bottom=0;right=0;fontStyle=1;overflow=hidden;" vertex="1" parent="xQFp0Q-bo08T8DU-dh-C-133">
          <mxGeometry width="30" height="30" as="geometry" />
        </mxCell>
        <mxCell id="xQFp0Q-bo08T8DU-dh-C-135" value="user_id" style="shape=partialRectangle;connectable=0;fillColor=none;top=0;left=0;bottom=0;right=0;align=left;spacingLeft=6;fontStyle=5;overflow=hidden;" vertex="1" parent="xQFp0Q-bo08T8DU-dh-C-133">
          <mxGeometry x="30" width="190" height="30" as="geometry" />
        </mxCell>
        <mxCell id="xQFp0Q-bo08T8DU-dh-C-136" value="" style="shape=partialRectangle;collapsible=0;dropTarget=0;pointerEvents=0;fillColor=none;top=0;left=0;bottom=0;right=0;points=[[0,0.5],[1,0.5]];portConstraint=eastwest;" vertex="1" parent="xQFp0Q-bo08T8DU-dh-C-132">
          <mxGeometry y="60" width="220" height="30" as="geometry" />
        </mxCell>
        <mxCell id="xQFp0Q-bo08T8DU-dh-C-137" value="" style="shape=partialRectangle;connectable=0;fillColor=none;top=0;left=0;bottom=0;right=0;editable=1;overflow=hidden;" vertex="1" parent="xQFp0Q-bo08T8DU-dh-C-136">
          <mxGeometry width="30" height="30" as="geometry" />
        </mxCell>
        <mxCell id="xQFp0Q-bo08T8DU-dh-C-138" value="email:string" style="shape=partialRectangle;connectable=0;fillColor=none;top=0;left=0;bottom=0;right=0;align=left;spacingLeft=6;overflow=hidden;" vertex="1" parent="xQFp0Q-bo08T8DU-dh-C-136">
          <mxGeometry x="30" width="190" height="30" as="geometry" />
        </mxCell>
        <mxCell id="xQFp0Q-bo08T8DU-dh-C-147" style="edgeStyle=orthogonalEdgeStyle;rounded=0;orthogonalLoop=1;jettySize=auto;html=1;exitX=0;exitY=0.5;exitDx=0;exitDy=0;entryX=0;entryY=0.5;entryDx=0;entryDy=0;" edge="1" parent="1" source="xQFp0Q-bo08T8DU-dh-C-109" target="xQFp0Q-bo08T8DU-dh-C-133">
          <mxGeometry relative="1" as="geometry" />
        </mxCell>
        <mxCell id="xQFp0Q-bo08T8DU-dh-C-149" style="edgeStyle=orthogonalEdgeStyle;rounded=0;orthogonalLoop=1;jettySize=auto;html=1;exitX=0;exitY=0.5;exitDx=0;exitDy=0;entryX=1;entryY=0.5;entryDx=0;entryDy=0;" edge="1" parent="1" source="xQFp0Q-bo08T8DU-dh-C-54" target="xQFp0Q-bo08T8DU-dh-C-133">
          <mxGeometry relative="1" as="geometry" />
        </mxCell>
        <mxCell id="xQFp0Q-bo08T8DU-dh-C-150" value="Payments" style="shape=table;startSize=30;container=1;collapsible=1;childLayout=tableLayout;fixedRows=1;rowLines=0;fontStyle=1;align=center;resizeLast=1;" vertex="1" parent="1">
          <mxGeometry x="810" y="460" width="180" height="210" as="geometry" />
        </mxCell>
        <mxCell id="xQFp0Q-bo08T8DU-dh-C-151" value="" style="shape=partialRectangle;collapsible=0;dropTarget=0;pointerEvents=0;fillColor=none;top=0;left=0;bottom=1;right=0;points=[[0,0.5],[1,0.5]];portConstraint=eastwest;" vertex="1" parent="xQFp0Q-bo08T8DU-dh-C-150">
          <mxGeometry y="30" width="180" height="30" as="geometry" />
        </mxCell>
        <mxCell id="xQFp0Q-bo08T8DU-dh-C-152" value="PK" style="shape=partialRectangle;connectable=0;fillColor=none;top=0;left=0;bottom=0;right=0;fontStyle=1;overflow=hidden;" vertex="1" parent="xQFp0Q-bo08T8DU-dh-C-151">
          <mxGeometry width="30" height="30" as="geometry" />
        </mxCell>
        <mxCell id="xQFp0Q-bo08T8DU-dh-C-153" value="payment_id" style="shape=partialRectangle;connectable=0;fillColor=none;top=0;left=0;bottom=0;right=0;align=left;spacingLeft=6;fontStyle=5;overflow=hidden;" vertex="1" parent="xQFp0Q-bo08T8DU-dh-C-151">
          <mxGeometry x="30" width="150" height="30" as="geometry" />
        </mxCell>
        <mxCell id="xQFp0Q-bo08T8DU-dh-C-154" value="" style="shape=partialRectangle;collapsible=0;dropTarget=0;pointerEvents=0;fillColor=none;top=0;left=0;bottom=0;right=0;points=[[0,0.5],[1,0.5]];portConstraint=eastwest;" vertex="1" parent="xQFp0Q-bo08T8DU-dh-C-150">
          <mxGeometry y="60" width="180" height="30" as="geometry" />
        </mxCell>
        <mxCell id="xQFp0Q-bo08T8DU-dh-C-155" value="" style="shape=partialRectangle;connectable=0;fillColor=none;top=0;left=0;bottom=0;right=0;editable=1;overflow=hidden;" vertex="1" parent="xQFp0Q-bo08T8DU-dh-C-154">
          <mxGeometry width="30" height="30" as="geometry" />
        </mxCell>
        <mxCell id="xQFp0Q-bo08T8DU-dh-C-156" value="order_id" style="shape=partialRectangle;connectable=0;fillColor=none;top=0;left=0;bottom=0;right=0;align=left;spacingLeft=6;overflow=hidden;" vertex="1" parent="xQFp0Q-bo08T8DU-dh-C-154">
          <mxGeometry x="30" width="150" height="30" as="geometry" />
        </mxCell>
        <mxCell id="xQFp0Q-bo08T8DU-dh-C-157" value="" style="shape=partialRectangle;collapsible=0;dropTarget=0;pointerEvents=0;fillColor=none;top=0;left=0;bottom=0;right=0;points=[[0,0.5],[1,0.5]];portConstraint=eastwest;" vertex="1" parent="xQFp0Q-bo08T8DU-dh-C-150">
          <mxGeometry y="90" width="180" height="30" as="geometry" />
        </mxCell>
        <mxCell id="xQFp0Q-bo08T8DU-dh-C-158" value="" style="shape=partialRectangle;connectable=0;fillColor=none;top=0;left=0;bottom=0;right=0;editable=1;overflow=hidden;" vertex="1" parent="xQFp0Q-bo08T8DU-dh-C-157">
          <mxGeometry width="30" height="30" as="geometry" />
        </mxCell>
        <mxCell id="xQFp0Q-bo08T8DU-dh-C-159" value="payment_method_id" style="shape=partialRectangle;connectable=0;fillColor=none;top=0;left=0;bottom=0;right=0;align=left;spacingLeft=6;overflow=hidden;" vertex="1" parent="xQFp0Q-bo08T8DU-dh-C-157">
          <mxGeometry x="30" width="150" height="30" as="geometry" />
        </mxCell>
        <mxCell id="xQFp0Q-bo08T8DU-dh-C-160" value="" style="shape=partialRectangle;collapsible=0;dropTarget=0;pointerEvents=0;fillColor=none;top=0;left=0;bottom=0;right=0;points=[[0,0.5],[1,0.5]];portConstraint=eastwest;" vertex="1" parent="xQFp0Q-bo08T8DU-dh-C-150">
          <mxGeometry y="120" width="180" height="30" as="geometry" />
        </mxCell>
        <mxCell id="xQFp0Q-bo08T8DU-dh-C-161" value="" style="shape=partialRectangle;connectable=0;fillColor=none;top=0;left=0;bottom=0;right=0;editable=1;overflow=hidden;" vertex="1" parent="xQFp0Q-bo08T8DU-dh-C-160">
          <mxGeometry width="30" height="30" as="geometry" />
        </mxCell>
        <mxCell id="xQFp0Q-bo08T8DU-dh-C-162" value="state:string" style="shape=partialRectangle;connectable=0;fillColor=none;top=0;left=0;bottom=0;right=0;align=left;spacingLeft=6;overflow=hidden;" vertex="1" parent="xQFp0Q-bo08T8DU-dh-C-160">
          <mxGeometry x="30" width="150" height="30" as="geometry" />
        </mxCell>
        <mxCell id="xQFp0Q-bo08T8DU-dh-C-193" value="" style="shape=partialRectangle;collapsible=0;dropTarget=0;pointerEvents=0;fillColor=none;top=0;left=0;bottom=0;right=0;points=[[0,0.5],[1,0.5]];portConstraint=eastwest;" vertex="1" parent="xQFp0Q-bo08T8DU-dh-C-150">
          <mxGeometry y="150" width="180" height="30" as="geometry" />
        </mxCell>
        <mxCell id="xQFp0Q-bo08T8DU-dh-C-194" value="" style="shape=partialRectangle;connectable=0;fillColor=none;top=0;left=0;bottom=0;right=0;editable=1;overflow=hidden;" vertex="1" parent="xQFp0Q-bo08T8DU-dh-C-193">
          <mxGeometry width="30" height="30" as="geometry" />
        </mxCell>
        <mxCell id="xQFp0Q-bo08T8DU-dh-C-195" value="total:float" style="shape=partialRectangle;connectable=0;fillColor=none;top=0;left=0;bottom=0;right=0;align=left;spacingLeft=6;overflow=hidden;" vertex="1" parent="xQFp0Q-bo08T8DU-dh-C-193">
          <mxGeometry x="30" width="150" height="30" as="geometry" />
        </mxCell>
        <mxCell id="xQFp0Q-bo08T8DU-dh-C-196" value="" style="shape=partialRectangle;collapsible=0;dropTarget=0;pointerEvents=0;fillColor=none;top=0;left=0;bottom=0;right=0;points=[[0,0.5],[1,0.5]];portConstraint=eastwest;" vertex="1" parent="xQFp0Q-bo08T8DU-dh-C-150">
          <mxGeometry y="180" width="180" height="30" as="geometry" />
        </mxCell>
        <mxCell id="xQFp0Q-bo08T8DU-dh-C-197" value="" style="shape=partialRectangle;connectable=0;fillColor=none;top=0;left=0;bottom=0;right=0;editable=1;overflow=hidden;" vertex="1" parent="xQFp0Q-bo08T8DU-dh-C-196">
          <mxGeometry width="30" height="30" as="geometry" />
        </mxCell>
        <mxCell id="xQFp0Q-bo08T8DU-dh-C-198" value="token:string" style="shape=partialRectangle;connectable=0;fillColor=none;top=0;left=0;bottom=0;right=0;align=left;spacingLeft=6;overflow=hidden;" vertex="1" parent="xQFp0Q-bo08T8DU-dh-C-196">
          <mxGeometry x="30" width="150" height="30" as="geometry" />
        </mxCell>
        <mxCell id="xQFp0Q-bo08T8DU-dh-C-163" value="PaymentMethod" style="shape=table;startSize=30;container=1;collapsible=1;childLayout=tableLayout;fixedRows=1;rowLines=0;fontStyle=1;align=center;resizeLast=1;" vertex="1" parent="1">
          <mxGeometry x="810" y="260" width="180" height="130" as="geometry" />
        </mxCell>
        <mxCell id="xQFp0Q-bo08T8DU-dh-C-164" value="" style="shape=partialRectangle;collapsible=0;dropTarget=0;pointerEvents=0;fillColor=none;top=0;left=0;bottom=1;right=0;points=[[0,0.5],[1,0.5]];portConstraint=eastwest;" vertex="1" parent="xQFp0Q-bo08T8DU-dh-C-163">
          <mxGeometry y="30" width="180" height="30" as="geometry" />
        </mxCell>
        <mxCell id="xQFp0Q-bo08T8DU-dh-C-165" value="PK" style="shape=partialRectangle;connectable=0;fillColor=none;top=0;left=0;bottom=0;right=0;fontStyle=1;overflow=hidden;" vertex="1" parent="xQFp0Q-bo08T8DU-dh-C-164">
          <mxGeometry width="30" height="30" as="geometry" />
        </mxCell>
        <mxCell id="xQFp0Q-bo08T8DU-dh-C-166" value="payment_method_id" style="shape=partialRectangle;connectable=0;fillColor=none;top=0;left=0;bottom=0;right=0;align=left;spacingLeft=6;fontStyle=5;overflow=hidden;" vertex="1" parent="xQFp0Q-bo08T8DU-dh-C-164">
          <mxGeometry x="30" width="150" height="30" as="geometry" />
        </mxCell>
        <mxCell id="xQFp0Q-bo08T8DU-dh-C-167" value="" style="shape=partialRectangle;collapsible=0;dropTarget=0;pointerEvents=0;fillColor=none;top=0;left=0;bottom=0;right=0;points=[[0,0.5],[1,0.5]];portConstraint=eastwest;" vertex="1" parent="xQFp0Q-bo08T8DU-dh-C-163">
          <mxGeometry y="60" width="180" height="30" as="geometry" />
        </mxCell>
        <mxCell id="xQFp0Q-bo08T8DU-dh-C-168" value="" style="shape=partialRectangle;connectable=0;fillColor=none;top=0;left=0;bottom=0;right=0;editable=1;overflow=hidden;" vertex="1" parent="xQFp0Q-bo08T8DU-dh-C-167">
          <mxGeometry width="30" height="30" as="geometry" />
        </mxCell>
        <mxCell id="xQFp0Q-bo08T8DU-dh-C-169" value="name" style="shape=partialRectangle;connectable=0;fillColor=none;top=0;left=0;bottom=0;right=0;align=left;spacingLeft=6;overflow=hidden;" vertex="1" parent="xQFp0Q-bo08T8DU-dh-C-167">
          <mxGeometry x="30" width="150" height="30" as="geometry" />
        </mxCell>
        <mxCell id="xQFp0Q-bo08T8DU-dh-C-170" value="" style="shape=partialRectangle;collapsible=0;dropTarget=0;pointerEvents=0;fillColor=none;top=0;left=0;bottom=0;right=0;points=[[0,0.5],[1,0.5]];portConstraint=eastwest;" vertex="1" parent="xQFp0Q-bo08T8DU-dh-C-163">
          <mxGeometry y="90" width="180" height="30" as="geometry" />
        </mxCell>
        <mxCell id="xQFp0Q-bo08T8DU-dh-C-171" value="" style="shape=partialRectangle;connectable=0;fillColor=none;top=0;left=0;bottom=0;right=0;editable=1;overflow=hidden;" vertex="1" parent="xQFp0Q-bo08T8DU-dh-C-170">
          <mxGeometry width="30" height="30" as="geometry" />
        </mxCell>
        <mxCell id="xQFp0Q-bo08T8DU-dh-C-172" value="code" style="shape=partialRectangle;connectable=0;fillColor=none;top=0;left=0;bottom=0;right=0;align=left;spacingLeft=6;overflow=hidden;" vertex="1" parent="xQFp0Q-bo08T8DU-dh-C-170">
          <mxGeometry x="30" width="150" height="30" as="geometry" />
        </mxCell>
        <mxCell id="xQFp0Q-bo08T8DU-dh-C-191" style="edgeStyle=orthogonalEdgeStyle;rounded=0;orthogonalLoop=1;jettySize=auto;html=1;exitX=0;exitY=0.5;exitDx=0;exitDy=0;entryX=1;entryY=0.5;entryDx=0;entryDy=0;" edge="1" parent="1" source="xQFp0Q-bo08T8DU-dh-C-154" target="xQFp0Q-bo08T8DU-dh-C-34">
          <mxGeometry relative="1" as="geometry" />
        </mxCell>
        <mxCell id="xQFp0Q-bo08T8DU-dh-C-192" style="edgeStyle=orthogonalEdgeStyle;rounded=0;orthogonalLoop=1;jettySize=auto;html=1;exitX=1;exitY=0.5;exitDx=0;exitDy=0;entryX=1;entryY=0.5;entryDx=0;entryDy=0;" edge="1" parent="1" source="xQFp0Q-bo08T8DU-dh-C-157" target="xQFp0Q-bo08T8DU-dh-C-164">
          <mxGeometry relative="1" as="geometry" />
        </mxCell>
      </root>
    </mxGraphModel>
  </diagram>
</mxfile>
